<svg width="55" height="56" viewBox="0 0 55 56" fill="none" xmlns="http://www.w3.org/2000/svg">
<g opacity="0.1">
<path d="M50.5635 2.64844L39.5528 5.85068L44.0108 2.8332C41.1963 3.46914 37.6406 4.71309 33.1719 6.7208L25.878 14.3252L28.4668 9.01318C25.9639 10.4054 23.3106 12.2305 20.7539 14.3682L19.0567 21.2754L18.6914 16.1621C16.167 18.4824 13.793 21.0605 11.8272 23.7783C9.76145 26.625 8.1469 29.6328 7.33801 32.6299L4.31731 30.6103C4.58801 33.1562 5.42483 35.3691 6.79768 37.3994L3.18616 36.293C4.00686 38.8174 5.34856 40.4502 7.61731 41.7715C6.34651 45.3486 5.75032 49.0869 5.11008 52.8145L7.08665 53.1475C9.37903 30.2988 25.5557 15.7324 40.1758 9.27852L40.917 11.1455C27.8438 17 17.6817 26.8828 12.3643 41.127C14.3086 41.1377 16.21 40.9014 17.9717 40.4502L18.4981 33.9082L19.9053 39.8701C21.0762 39.4404 22.1504 38.9248 23.1065 38.3232L20.8828 33.6504L24.4063 37.3887C25.2656 36.7012 25.9746 35.9277 26.5117 35.0791C29.7774 29.9766 33.1934 24.9062 39.918 20.6631L35.0088 18.9229L42.5391 19.1484C43.7637 18.5254 45.0528 17.7627 46.0303 17.043L40.6914 16.6133L48.7158 14.7227C49.3389 14.0996 49.919 13.4443 50.4453 12.7891C52.3037 10.4322 53.5606 7.97871 53.2598 5.74756C53.1201 4.63145 52.4541 3.58193 51.3692 2.99434C51.1006 2.85469 50.8106 2.73115 50.5635 2.64844Z" fill="#222222"/>
</g>
</svg>
