<svg width="55" height="55" viewBox="0 0 55 55" fill="none" xmlns="http://www.w3.org/2000/svg">
<rect width="55" height="55" fill="#2C2C2C"/>
<path d="M17.3333 38.1666C16.6 38.1666 15.972 37.9053 15.4493 37.3826C14.9266 36.8599 14.6657 36.2324 14.6666 35.4999V19.4999C14.6666 18.7666 14.928 18.1386 15.4506 17.6159C15.9733 17.0933 16.6009 16.8324 17.3333 16.8333H38.6666C39.4 16.8333 40.028 17.0946 40.5506 17.6173C41.0733 18.1399 41.3342 18.7675 41.3333 19.4999V35.4999C41.3333 36.2333 41.072 36.8613 40.5493 37.3839C40.0266 37.9066 39.3991 38.1675 38.6666 38.1666H17.3333ZM28 28.8333L17.3333 22.1666V35.4999H38.6666V22.1666L28 28.8333ZM28 26.1666L38.6666 19.4999H17.3333L28 26.1666ZM17.3333 22.1666V19.4999V35.4999V22.1666Z" fill="#F8F5F4"/>
</svg>
