<svg width="55" height="55" viewBox="0 0 55 55" fill="none" xmlns="http://www.w3.org/2000/svg">
<rect width="55" height="55" fill="#2C2C2C"/>
<path d="M28 20.6667C28.884 20.6667 29.7319 21.0179 30.357 21.6431C30.9821 22.2682 31.3333 23.116 31.3333 24.0001C31.3333 24.4378 31.2471 24.8713 31.0796 25.2757C30.912 25.6801 30.6665 26.0476 30.357 26.3571C30.0475 26.6666 29.68 26.9122 29.2756 27.0797C28.8712 27.2472 28.4377 27.3334 28 27.3334C27.1159 27.3334 26.2681 26.9822 25.6429 26.3571C25.0178 25.732 24.6666 24.8841 24.6666 24.0001C24.6666 23.116 25.0178 22.2682 25.6429 21.6431C26.2681 21.0179 27.1159 20.6667 28 20.6667ZM28 14.6667C30.4753 14.6667 32.8493 15.6501 34.5996 17.4004C36.35 19.1508 37.3333 21.5247 37.3333 24.0001C37.3333 31.0001 28 41.3334 28 41.3334C28 41.3334 18.6666 31.0001 18.6666 24.0001C18.6666 21.5247 19.65 19.1508 21.4003 17.4004C23.1506 15.6501 25.5246 14.6667 28 14.6667ZM28 17.3334C26.2318 17.3334 24.5362 18.0358 23.2859 19.286C22.0357 20.5363 21.3333 22.232 21.3333 24.0001C21.3333 25.3334 21.3333 28.0001 28 36.9467C34.6666 28.0001 34.6666 25.3334 34.6666 24.0001C34.6666 22.232 33.9642 20.5363 32.714 19.286C31.4638 18.0358 29.7681 17.3334 28 17.3334Z" fill="#F8F5F4"/>
</svg>
