<svg width="42" height="40" viewBox="0 0 42 40" fill="none" xmlns="http://www.w3.org/2000/svg">
<rect x="0.41748" width="41.165" height="40" fill="white"/>
<path d="M30.6095 19.7875C29.853 17.886 28.5396 16.2416 26.8318 15.0576C25.124 13.8735 23.0965 13.2016 21 13.125C18.9035 13.2016 16.876 13.8735 15.1682 15.0576C13.4604 16.2416 12.1471 17.886 11.3906 19.7875C11.3395 19.9248 11.3395 20.0752 11.3906 20.2125C12.1471 22.114 13.4604 23.7584 15.1682 24.9424C16.876 26.1265 18.9035 26.7984 21 26.875C23.0965 26.7984 25.124 26.1265 26.8318 24.9424C28.5396 23.7584 29.853 22.114 30.6095 20.2125C30.6606 20.0752 30.6606 19.9248 30.6095 19.7875ZM21 25.625C17.591 25.625 13.9891 23.1688 12.6834 20C13.9891 16.8312 17.591 14.375 21 14.375C24.409 14.375 28.0109 16.8312 29.3166 20C28.0109 23.1688 24.409 25.625 21 25.625Z" fill="#4F8FF0"/>
<path d="M21 16.25C20.2367 16.25 19.4905 16.4699 18.8559 16.882C18.2213 17.294 17.7266 17.8797 17.4345 18.5649C17.1424 19.2502 17.066 20.0042 17.2149 20.7316C17.3638 21.459 17.7314 22.1272 18.2711 22.6517C18.8108 23.1761 19.4985 23.5333 20.2471 23.6779C20.9957 23.8226 21.7717 23.7484 22.4768 23.4645C23.182 23.1807 23.7847 22.7001 24.2088 22.0834C24.6329 21.4667 24.8592 20.7417 24.8592 20C24.8592 19.0054 24.4526 18.0516 23.7289 17.3483C23.0051 16.6451 22.0235 16.25 21 16.25ZM21 22.5C20.4911 22.5 19.9937 22.3534 19.5706 22.0787C19.1475 21.804 18.8177 21.4135 18.623 20.9567C18.4283 20.4999 18.3773 19.9972 18.4766 19.5123C18.5759 19.0273 18.8209 18.5819 19.1807 18.2322C19.5405 17.8826 19.999 17.6445 20.498 17.548C20.9971 17.4516 21.5144 17.5011 21.9845 17.6903C22.4547 17.8795 22.8565 18.2 23.1392 18.6111C23.4219 19.0222 23.5728 19.5055 23.5728 20C23.5728 20.663 23.3017 21.2989 22.8192 21.7678C22.3367 22.2366 21.6823 22.5 21 22.5Z" fill="#4F8FF0"/>
</svg>
